<?xml version="1.0" encoding="utf-8"?>
<!-- Generated by IcoMoon.io -->
<!DOCTYPE svg PUBLIC "-//W3C//DTD SVG 1.1//EN" "http://www.w3.org/Graphics/SVG/1.1/DTD/svg11.dtd">
<svg version="1.1" xmlns="http://www.w3.org/2000/svg" xmlns:xlink="http://www.w3.org/1999/xlink" width="56" height="20" viewBox="0 0 56 20">
<g transform="translate(0 0)">
	<path d="M17.5 13.75v-10c0-0.688-0.563-1.25-1.25-1.25h-12.5c-0.688 0-1.25 0.563-1.25 1.25v10h-2.5v3.75h20v-3.75h-2.5zM12.5 16.25h-5v-1.25h5v1.25zM16.25 13.75h-12.5v-9.998c0.001-0.001 0.001-0.002 0.002-0.002h12.496c0.001 0.001 0.002 0.001 0.002 0.002v9.998z" fill="#c5c5c5" />
</g>
<g transform="translate(36 0)">
	<path d="M17.189 4.151c-1.672-1.535-4.383-1.535-6.055 0l-1.134 1.042-1.135-1.042c-1.672-1.535-4.382-1.535-6.054 0-1.881 1.726-1.881 4.524 0 6.251l7.189 6.598 7.189-6.598c1.881-1.727 1.881-4.525 0-6.251z" fill="#c5c5c5" />
</g>
</svg>
