<?xml version="1.0" encoding="utf-8"?>
<!-- Generator: Adobe Illustrator 16.0.0, SVG Export Plug-In . SVG Version: 6.00 Build 0)  -->
<!DOCTYPE svg PUBLIC "-//W3C//DTD SVG 1.1//EN" "http://www.w3.org/Graphics/SVG/1.1/DTD/svg11.dtd">
<svg version="1.1" id="Layer_1" xmlns="http://www.w3.org/2000/svg" xmlns:xlink="http://www.w3.org/1999/xlink" x="0px" y="0px"
	 width="79.16px" height="96.701px" viewBox="33.135 20.237 79.16 96.701" enable-background="new 33.135 20.237 79.16 96.701"
	 xml:space="preserve">
<g>
	<path fill="#F3A500" stroke="#7B7B7B" stroke-width="6.7382" stroke-miterlimit="10" d="M36.504,23.606h9.301v28.285l25.224-28.285
		h11.827l-22.15,25.383L83.17,81.583H72.133L53.847,56.204l-8.042,9.123v16.256h-9.301V23.606z"/>
</g>
<line fill="none" x1="71.625" y1="75.042" x2="86.25" y2="95.584"/>
<path fill="#F3A500" d="M73.281,77.406c9.438,12.844,9.094,12.375,9.438,12.844s3.406-0.125,3.406-0.125
	C76.75,78.188,76.75,78.188,76.75,78.188"/>
<path fill="#F3A500" d="M81.5,84.156C69.531,67.75,69.531,67.75,69.531,67.75l6.344,9.219L78.031,80l2.906,3.844L81.5,84.156z"/>
<polygon fill="#F3A500" points="81.5,84.156 82.125,85.031 81.531,84.75 "/>
<g>
	<g>
		<path fill="#F3A500" d="M80.906,85.031c0.645,0,0.645-1,0-1S80.262,85.031,80.906,85.031L80.906,85.031z"/>
	</g>
</g>
<g>
	<g>
		<path fill="#F3A500" d="M80.969,85.031c0.645,0,0.645-1,0-1S80.324,85.031,80.969,85.031L80.969,85.031z"/>
	</g>
</g>
<g>
	<g>
		<path fill="#F3A500" d="M80.938,84.969c0.646,0,0.646-1,0-1C80.293,83.969,80.293,84.969,80.938,84.969L80.938,84.969z"/>
	</g>
</g>
<g>
	<g>
		<path fill="#F3A500" d="M81.031,84.906c0.645,0,0.645-1,0-1S80.387,84.906,81.031,84.906L81.031,84.906z"/>
	</g>
</g>
<g>
	<g>
		<path fill="#F3A500" d="M80.188,84.938c0.646,0,0.646-1,0-1C79.543,83.938,79.543,84.938,80.188,84.938L80.188,84.938z"/>
	</g>
</g>
<g>
	<g>
		<path fill="#F3A500" d="M79.938,84.344c0.646,0,0.646-1,0-1C79.293,83.344,79.293,84.344,79.938,84.344L79.938,84.344z"/>
	</g>
</g>
<g>
	<g>
		<path fill="#F3A500" d="M80.906,85.25c0.645,0,0.645-1,0-1S80.262,85.25,80.906,85.25L80.906,85.25z"/>
	</g>
</g>
<g>
	<g>
		<path fill="#F3A500" d="M80.938,85.094c0.646,0,0.646-1,0-1C80.293,84.094,80.293,85.094,80.938,85.094L80.938,85.094z"/>
	</g>
</g>
<g>
	<g>
		<path fill="#F3A500" d="M81,85c0.645,0,0.645-1,0-1S80.355,85,81,85L81,85z"/>
	</g>
</g>
<g>
	<g>
		<path fill="#F3A500" d="M81.062,84.938c0.645,0,0.645-1,0-1C80.417,83.938,80.418,84.938,81.062,84.938L81.062,84.938z"/>
	</g>
</g>
<g>
	<g>
		<path fill="#F3A500" d="M81.094,84.938c0.645,0,0.645-1,0-1S80.449,84.938,81.094,84.938L81.094,84.938z"/>
	</g>
</g>
<g>
	<path fill="#F3A500" stroke="#7B7B7B" stroke-width="6.8166" stroke-miterlimit="10" d="M103.384,73.535
		c0,9.771-3.983,15.929-11.928,18.474l14.446,21.521H94.064L80.865,93.616H68.623v19.913h-9.318V54.303h20.526
		c8.425,0,14.466,1.524,18.104,4.572C101.559,61.93,103.384,66.812,103.384,73.535z M90.98,81.928c1.89-1.752,2.84-4.564,2.84-8.434
		s-0.978-6.523-2.918-7.965c-1.967-1.441-5.437-2.158-10.437-2.158H68.623v21.184h11.605C85.492,84.555,89.079,83.68,90.98,81.928z"
		/>
</g>
<path fill="#F3A500" d="M54.125,50.75c19.25,26.75,18.812,26.062,18.812,26.062L72.5,71.75C56.75,49.188,56.75,49.188,56.75,49.188"
	/>
<polyline fill="#F3A500" points="75.792,80.709 85.959,95.125 88.667,93.917 77.542,78.709 "/>
</svg>
